# xmcd CD database file
#
# Track frame offsets:
#	150
#	61831
#	93512
#	144291
#	203320
#	227611
#	255327
#	277327
#
# Disc length: 4616 seconds
#
# Revision: 1
# Processed by: cddbd v1.5.2PL0 Copyright (c) Steve Scherf et al.
# Submitted via: CDex 1.51
#
DISCID=64120608
DTITLE=Various Artist - Evgeny Svetlanov - Vol.10
DYEAR=1900
DGENRE=Classique
TTITLE0=Evgeny Svetlanov - Symphony N°1 in B minor Op.13 - I. Allegro Moderato  [Grand Sym.Orch. TV-Radio - 1958]
TTITLE1=Evgeny Svetlanov - Symphony N°1 in B minor Op.13 - II. Allegro vivace
TTITLE2=Evgeny Svetlanov - Symphony N°1 in B minor Op.13 - III. Largo
TTITLE3=Evgeny Svetlanov - Symphony N°1 in B minor Op.13 - IV. Andante Mesto
TTITLE4=Evgeny Svetlanov - Pictures of Spain - I. Corrida  [Grand Symphony Orchestra of TV and Radio - 1955]
TTITLE5=Evgeny Svetlanov - Pictures of Spain - II. Serenade
TTITLE6=Evgeny Svetlanov - Pictures of Spain - III. Jota
TTITLE7=Alexei Muravlev - Azov Mountain - Symphonic Poem in D major Op.10  [USSR State Symphony Orchestra - 1981]
EXTD=
EXTT0=
EXTT1=
EXTT2=
EXTT3=
EXTT4=
EXTT5=
EXTT6=
EXTT7=
PLAYORDER=
